<svg xmlns="http://www.w3.org/2000/svg" width="1042.628" height="98.198" viewBox="0 0 1042.628 98.198">
  <path id="IBM_Client_Engineering" d="M144,216v-7.22h10.109V151.224H144V144h28.882v7.221H162.773v57.557h10.109V216Zm44.663-72h29.6c11.862,0,19.186,7.324,19.186,18.567,0,10.727-6.911,14.544-11.656,15.266v.619c5.158.31,14.131,4.745,14.131,16.711,0,11.861-7.942,20.835-18.566,20.835h-32.7Zm8.665,31.151h19.908c6.807,0,10.933-3.61,10.933-10.005v-3.507c0-6.4-4.126-10.006-10.933-10.006H197.328Zm0,33.215H218.68c7.426,0,11.965-3.92,11.965-11.141v-3.507c0-7.221-4.539-11.14-11.965-11.14H197.328ZM256.02,144h11.553l20.63,38.785h.515L309.452,144h11.14v72h-8.459V155.35h-.515l-6.086,12.068-17.226,31.357L271.08,167.418l-6.086-12.068h-.515V216H256.02Zm100.364,36.412c0-24.034,10.83-37.65,28.985-37.65,11.965,0,20.217,5.777,24.756,15.782l-7.014,4.229c-2.889-7.426-8.871-12.275-17.742-12.275-12.378,0-19.7,9.8-19.7,24.55v10.728c0,14.75,7.324,23.724,19.7,23.724,9.18,0,15.472-5.157,18.361-13l6.911,4.332c-4.539,10.109-13.307,16.4-25.272,16.4C367.214,217.239,356.384,204.449,356.384,180.415ZM431.992,216c-5.673,0-8.768-3.61-8.768-8.561V139.671h8.252v69.11h7.84V216Zm18.36-70.347v-1.341c0-2.785,1.547-4.642,5.054-4.642s5.054,1.857,5.054,4.642v1.341c0,2.784-1.547,4.641-5.054,4.641S450.352,148.438,450.352,145.654Zm.928,17.122h8.252V216H451.28Zm21.867,26.613c0-16.917,9.49-27.85,23.931-27.85,14.235,0,23,10.933,23,25.993v3.92H481.812v2.475c0,9.181,5.88,16.092,15.782,16.092a15.425,15.425,0,0,0,14.647-9.181l5.88,4.23c-3.4,7.22-11.038,12.171-21.043,12.171C482.637,217.239,473.147,206.3,473.147,189.389Zm8.665-4.848v.722h29.4v-1.135c0-9.386-5.672-15.678-14.131-15.678C488.1,168.45,481.812,175.257,481.812,184.541ZM533.7,216V162.776h8.252v8.665h.413c2.578-5.983,7.117-9.9,15.059-9.9,10.934,0,17.845,7.426,17.845,20.32V216h-8.252V183.3c0-9.49-4.126-14.338-12.068-14.338-6.6,0-13,3.3-13,10.109V216Zm70.347,0c-5.673,0-8.768-3.61-8.768-8.767V170h-8.767v-7.221h4.951c3.507,0,4.642-1.237,4.642-4.848v-9.9h7.426v14.75h11.657V170H603.527v38.784h10.831V216Zm45.488,0V144h43.942v7.633H658.2v24.137H691.41v7.633H658.2v24.963h35.277V216Zm59.311,0V162.776h8.252v8.665h.413c2.578-5.983,7.117-9.9,15.059-9.9,10.934,0,17.845,7.426,17.845,20.32V216h-8.252V183.3c0-9.49-4.126-14.338-12.068-14.338-6.6,0-13,3.3-13,10.109V216Zm77.672,21.868c-16.608,0-23.415-4.744-23.415-13.1,0-5.776,3.2-8.871,8.458-10.315V213.32a7.712,7.712,0,0,1-4.745-7.427c0-5.364,3.817-7.943,9.18-9.284V196.2c-6.292-2.991-10.006-8.871-10.006-16.3,0-10.831,7.944-18.36,20.012-18.36a23.89,23.89,0,0,1,10.108,2.063v-.929c0-4.126,1.753-7.117,6.189-7.117h7.943v7.22H800.129v3.4a17.692,17.692,0,0,1,6.086,13.719c0,10.831-7.943,18.361-20.114,18.361a27.356,27.356,0,0,1-5.158-.516c-3.506.928-7.013,2.682-7.013,5.983,0,3.2,3.3,4.023,8.148,4.023h11.347c13.2,0,18.876,5.363,18.876,14.131C812.3,232.815,803.637,237.869,786.514,237.869Zm7.013-22.383H775.786c-3.4,1.547-4.951,3.919-4.951,7.22,0,4.642,3.2,8.459,11.553,8.459h7.633c9.18,0,14.543-2.889,14.543-8.665C804.564,218.271,801.779,215.486,793.527,215.486Zm4.024-34.143v-2.888c0-7.014-4.436-10.315-11.45-10.315s-11.45,3.3-11.45,10.315v2.888c0,7.014,4.436,10.315,11.45,10.315S797.551,188.357,797.551,181.343Zm23.414-35.689v-1.341c0-2.785,1.548-4.642,5.055-4.642s5.054,1.857,5.054,4.642v1.341c0,2.784-1.548,4.641-5.054,4.641S820.965,148.438,820.965,145.654Zm.929,17.122h8.252V216h-8.252ZM847.681,216V162.776h8.252v8.665h.413c2.578-5.983,7.117-9.9,15.059-9.9,10.934,0,17.845,7.426,17.845,20.32V216H881V183.3c0-9.49-4.126-14.338-12.068-14.338-6.6,0-13,3.3-13,10.109V216Zm54.669-26.612c0-16.917,9.49-27.85,23.93-27.85,14.236,0,23,10.933,23,25.993v3.92H911.015v2.475c0,9.181,5.88,16.092,15.782,16.092a15.424,15.424,0,0,0,14.646-9.181l5.88,4.23c-3.4,7.22-11.037,12.171-21.043,12.171C911.84,217.239,902.35,206.3,902.35,189.389Zm8.665-4.848v.722h29.4v-1.135c0-9.386-5.673-15.678-14.132-15.678C917.307,168.45,911.015,175.257,911.015,184.541Zm47.964,4.848c0-16.917,9.49-27.85,23.93-27.85,14.236,0,23,10.933,23,25.993v3.92H967.644v2.475c0,9.181,5.879,16.092,15.782,16.092a15.424,15.424,0,0,0,14.646-9.181l5.88,4.23c-3.4,7.22-11.037,12.171-21.043,12.171C968.469,217.239,958.979,206.3,958.979,189.389Zm8.665-4.848v.722h29.4v-1.135c0-9.386-5.673-15.678-14.132-15.678C973.936,168.45,967.644,175.257,967.644,184.541ZM1019.527,216V162.776h8.252v9.8h.516c1.857-5.055,6.7-9.8,15.369-9.8h3.2v8.252h-4.848c-8.87,0-14.235,3.817-14.235,8.871V216Zm36.926-70.347v-1.341c0-2.785,1.548-4.642,5.055-4.642s5.055,1.857,5.055,4.642v1.341c0,2.784-1.548,4.641-5.055,4.641S1056.453,148.438,1056.453,145.654Zm.929,17.122h8.252V216h-8.252ZM1083.169,216V162.776h8.252v8.665h.413c2.578-5.983,7.117-9.9,15.06-9.9,10.933,0,17.844,7.426,17.844,20.32V216h-8.252V183.3c0-9.49-4.126-14.338-12.068-14.338-6.6,0-13,3.3-13,10.109V216Zm77.672,21.868c-16.608,0-23.415-4.744-23.415-13.1,0-5.776,3.2-8.871,8.458-10.315V213.32a7.713,7.713,0,0,1-4.745-7.427c0-5.364,3.816-7.943,9.18-9.284V196.2c-6.292-2.991-10.006-8.871-10.006-16.3,0-10.831,7.943-18.36,20.012-18.36a23.894,23.894,0,0,1,10.109,2.063v-.929c0-4.126,1.754-7.117,6.188-7.117h7.942v7.22h-10.108v3.4a17.692,17.692,0,0,1,6.086,13.719c0,10.831-7.942,18.361-20.114,18.361a27.337,27.337,0,0,1-5.157-.516c-3.507.928-7.015,2.682-7.015,5.983,0,3.2,3.3,4.023,8.149,4.023h11.347c13.2,0,18.876,5.363,18.876,14.131C1186.628,232.815,1177.963,237.869,1160.841,237.869Zm7.013-22.383h-17.741c-3.4,1.547-4.951,3.919-4.951,7.22,0,4.642,3.2,8.459,11.553,8.459h7.633c9.18,0,14.544-2.889,14.544-8.665C1178.892,218.271,1176.106,215.486,1167.854,215.486Zm4.024-34.143v-2.888c0-7.014-4.436-10.315-11.45-10.315s-11.449,3.3-11.449,10.315v2.888c0,7.014,4.435,10.315,11.449,10.315S1171.878,188.357,1171.878,181.343Z" transform="translate(-144 -139.671)"/>
</svg>
